%TF.GenerationSoftware,KiCad,Pcbnew,9.0.9*%
%TF.CreationDate,2026-09-20T16:08:35+07:00*%
%TF.ProjectId,MM_Control,4d4d5f43-6f6e-4747-926f-6c2e6b696361,rev?*%
%TF.SameCoordinates,Original*%
%TF.FileFunction,Paste,Top*%
%TF.FilePolarity,Positive*%
%FSLAX46Y46*%
G04 Gerber Fmt 4.6, Leading zero omitted, Abs format (unit mm)*
G04 Created by KiCad (PCBNEW 9.0.9) date 2026-09-20 16:08:35*
%MOMM*%
%LPD*%
G01*
G04 APERTURE LIST*
G04 Aperture macros list*
%AMRoundRect*
0 Rectangle with rounded corners*
0 $1 Rounding radius*
0 $2 $3 $4 $5 $6 $7 $8 $9 X,Y pos of 4 corners*
0 Add a 4 corners polygon primitive as box body*
4,1,4,$2,$3,$4,$5,$6,$7,$8,$9,$2,$3,0*
0 Add four circle primitives for the rounded corners*
1,1,$1+$1,$2,$3*
1,1,$1+$1,$4,$5*
1,1,$1+$1,$6,$7*
1,1,$1+$1,$8,$9*
0 Add four rect primitives between the rounded corners*
20,1,$1+$1,$2,$3,$4,$5,0*
20,1,$1+$1,$4,$5,$6,$7,0*
20,1,$1+$1,$6,$7,$8,$9,0*
20,1,$1+$1,$8,$9,$2,$3,0*%
G04 Aperture macros list end*
%ADD10RoundRect,0.237500X-0.287500X-0.237500X0.287500X-0.237500X0.287500X0.237500X-0.287500X0.237500X0*%
%ADD11RoundRect,0.237500X0.237500X-0.300000X0.237500X0.300000X-0.237500X0.300000X-0.237500X-0.300000X0*%
%ADD12RoundRect,0.250000X1.500000X0.550000X-1.500000X0.550000X-1.500000X-0.550000X1.500000X-0.550000X0*%
%ADD13RoundRect,0.250000X-0.550000X1.500000X-0.550000X-1.500000X0.550000X-1.500000X0.550000X1.500000X0*%
%ADD14RoundRect,0.249999X0.450001X1.425001X-0.450001X1.425001X-0.450001X-1.425001X0.450001X-1.425001X0*%
%ADD15RoundRect,0.250000X-1.000000X-0.650000X1.000000X-0.650000X1.000000X0.650000X-1.000000X0.650000X0*%
%ADD16RoundRect,0.237500X0.300000X0.237500X-0.300000X0.237500X-0.300000X-0.237500X0.300000X-0.237500X0*%
%ADD17R,2.700000X3.600000*%
%ADD18RoundRect,0.250000X-0.412500X-0.650000X0.412500X-0.650000X0.412500X0.650000X-0.412500X0.650000X0*%
%ADD19RoundRect,0.237500X0.250000X0.237500X-0.250000X0.237500X-0.250000X-0.237500X0.250000X-0.237500X0*%
%ADD20RoundRect,0.075000X0.075000X-0.725000X0.075000X0.725000X-0.075000X0.725000X-0.075000X-0.725000X0*%
%ADD21RoundRect,0.075000X0.725000X-0.075000X0.725000X0.075000X-0.725000X0.075000X-0.725000X-0.075000X0*%
%ADD22R,3.100000X2.400000*%
%ADD23R,0.500000X2.200000*%
%ADD24RoundRect,0.237500X-0.300000X-0.237500X0.300000X-0.237500X0.300000X0.237500X-0.300000X0.237500X0*%
%ADD25RoundRect,0.150000X0.150000X0.425000X-0.150000X0.425000X-0.150000X-0.425000X0.150000X-0.425000X0*%
%ADD26RoundRect,0.075000X0.075000X0.500000X-0.075000X0.500000X-0.075000X-0.500000X0.075000X-0.500000X0*%
%ADD27O,1.000000X2.100000*%
%ADD28O,1.000000X1.800000*%
%ADD29RoundRect,0.250000X-1.500000X-0.550000X1.500000X-0.550000X1.500000X0.550000X-1.500000X0.550000X0*%
%ADD30RoundRect,0.237500X0.237500X-0.250000X0.237500X0.250000X-0.237500X0.250000X-0.237500X-0.250000X0*%
%ADD31RoundRect,0.237500X-0.237500X0.250000X-0.237500X-0.250000X0.237500X-0.250000X0.237500X0.250000X0*%
%ADD32RoundRect,0.195000X0.705000X0.455000X-0.705000X0.455000X-0.705000X-0.455000X0.705000X-0.455000X0*%
%ADD33RoundRect,0.250000X-0.650000X0.412500X-0.650000X-0.412500X0.650000X-0.412500X0.650000X0.412500X0*%
%ADD34RoundRect,0.237500X-0.250000X-0.237500X0.250000X-0.237500X0.250000X0.237500X-0.250000X0.237500X0*%
%ADD35R,0.900000X0.400000*%
%ADD36R,1.550000X0.600000*%
%ADD37R,2.600000X3.100000*%
%ADD38RoundRect,0.250000X0.445000X-0.545000X0.445000X0.545000X-0.445000X0.545000X-0.445000X-0.545000X0*%
%ADD39RoundRect,0.249999X-0.450001X-1.425001X0.450001X-1.425001X0.450001X1.425001X-0.450001X1.425001X0*%
%ADD40RoundRect,0.150000X0.150000X-0.825000X0.150000X0.825000X-0.150000X0.825000X-0.150000X-0.825000X0*%
%ADD41RoundRect,0.237500X-0.237500X0.300000X-0.237500X-0.300000X0.237500X-0.300000X0.237500X0.300000X0*%
%ADD42RoundRect,0.250000X0.412500X0.650000X-0.412500X0.650000X-0.412500X-0.650000X0.412500X-0.650000X0*%
%ADD43RoundRect,0.237500X0.237500X-0.287500X0.237500X0.287500X-0.237500X0.287500X-0.237500X-0.287500X0*%
%ADD44R,0.400000X0.900000*%
%ADD45RoundRect,0.237500X0.287500X0.237500X-0.287500X0.237500X-0.287500X-0.237500X0.287500X-0.237500X0*%
%ADD46RoundRect,0.375000X0.625000X0.375000X-0.625000X0.375000X-0.625000X-0.375000X0.625000X-0.375000X0*%
%ADD47RoundRect,0.500000X0.500000X1.400000X-0.500000X1.400000X-0.500000X-1.400000X0.500000X-1.400000X0*%
G04 APERTURE END LIST*
D10*
%TO.C,DC_Fault2*%
X112307501Y-75218300D03*
X114057499Y-75218300D03*
%TD*%
D11*
%TO.C,C36*%
X90915000Y-65261251D03*
X90915000Y-63536249D03*
%TD*%
D12*
%TO.C,C8*%
X129500000Y-74380000D03*
X123900000Y-74380000D03*
%TD*%
D13*
%TO.C,C32*%
X103880000Y-130980000D03*
X103880000Y-136580000D03*
%TD*%
D14*
%TO.C,R3*%
X64000000Y-64170000D03*
X57900000Y-64170000D03*
%TD*%
D15*
%TO.C,D2*%
X141922499Y-104270000D03*
X145922501Y-104270000D03*
%TD*%
D16*
%TO.C,C17*%
X94990000Y-106570000D03*
X93264998Y-106570000D03*
%TD*%
D17*
%TO.C,L2*%
X128070000Y-101500000D03*
X119770000Y-101500000D03*
%TD*%
D18*
%TO.C,C41*%
X109817500Y-136780000D03*
X112942500Y-136780000D03*
%TD*%
D19*
%TO.C,R27*%
X147360000Y-93970000D03*
X145535000Y-93970000D03*
%TD*%
D20*
%TO.C,U5*%
X89290000Y-97865000D03*
X89790000Y-97865000D03*
X90290001Y-97865000D03*
X90790000Y-97865000D03*
X91289999Y-97865000D03*
X91790000Y-97865000D03*
X92290000Y-97865000D03*
X92790001Y-97865000D03*
X93290000Y-97865000D03*
X93790000Y-97865000D03*
X94290000Y-97865000D03*
X94790000Y-97865000D03*
X95290000Y-97865001D03*
X95790000Y-97865000D03*
X96290000Y-97865000D03*
X96790000Y-97865000D03*
X97290000Y-97865000D03*
X97789999Y-97865000D03*
X98290000Y-97865000D03*
X98790000Y-97865000D03*
X99290001Y-97865000D03*
X99790000Y-97865000D03*
X100289999Y-97865000D03*
X100790000Y-97865000D03*
X101290000Y-97865000D03*
D21*
X102965000Y-96190000D03*
X102965000Y-95690000D03*
X102965000Y-95189999D03*
X102965000Y-94690000D03*
X102965000Y-94190001D03*
X102965000Y-93690000D03*
X102965000Y-93190000D03*
X102965000Y-92689999D03*
X102965000Y-92190000D03*
X102965000Y-91690000D03*
X102965000Y-91190000D03*
X102965000Y-90690000D03*
X102965001Y-90190000D03*
X102965000Y-89690000D03*
X102965000Y-89190000D03*
X102965000Y-88690000D03*
X102965000Y-88190000D03*
X102965000Y-87690001D03*
X102965000Y-87190000D03*
X102965000Y-86690000D03*
X102965000Y-86189999D03*
X102965000Y-85690000D03*
X102965000Y-85190001D03*
X102965000Y-84690000D03*
X102965000Y-84190000D03*
D20*
X101290000Y-82515000D03*
X100790000Y-82515000D03*
X100289999Y-82515000D03*
X99790000Y-82515000D03*
X99290001Y-82515000D03*
X98790000Y-82515000D03*
X98290000Y-82515000D03*
X97789999Y-82515000D03*
X97290000Y-82515000D03*
X96790000Y-82515000D03*
X96290000Y-82515000D03*
X95790000Y-82515000D03*
X95290000Y-82514999D03*
X94790000Y-82515000D03*
X94290000Y-82515000D03*
X93790000Y-82515000D03*
X93290000Y-82515000D03*
X92790001Y-82515000D03*
X92290000Y-82515000D03*
X91790000Y-82515000D03*
X91289999Y-82515000D03*
X90790000Y-82515000D03*
X90290001Y-82515000D03*
X89790000Y-82515000D03*
X89290000Y-82515000D03*
D21*
X87615000Y-84190000D03*
X87615000Y-84690000D03*
X87615000Y-85190001D03*
X87615000Y-85690000D03*
X87615000Y-86189999D03*
X87615000Y-86690000D03*
X87615000Y-87190000D03*
X87615000Y-87690001D03*
X87615000Y-88190000D03*
X87615000Y-88690000D03*
X87615000Y-89190000D03*
X87615000Y-89690000D03*
X87614999Y-90190000D03*
X87615000Y-90690000D03*
X87615000Y-91190000D03*
X87615000Y-91690000D03*
X87615000Y-92190000D03*
X87615000Y-92689999D03*
X87615000Y-93190000D03*
X87615000Y-93690000D03*
X87615000Y-94190001D03*
X87615000Y-94690000D03*
X87615000Y-95189999D03*
X87615000Y-95690000D03*
X87615000Y-96190000D03*
%TD*%
D13*
%TO.C,C30*%
X125595000Y-130975000D03*
X125595000Y-136575000D03*
%TD*%
D22*
%TO.C,U4*%
X65860000Y-87115000D03*
D23*
X63955001Y-89990000D03*
X65225000Y-89990000D03*
X66495000Y-89990000D03*
X67764999Y-89990000D03*
X67764999Y-84240000D03*
X66495000Y-84240000D03*
X65225000Y-84240000D03*
X63955001Y-84240000D03*
%TD*%
D24*
%TO.C,C37*%
X142487499Y-101230000D03*
X144212501Y-101230000D03*
%TD*%
D25*
%TO.C,J22*%
X109920000Y-57365000D03*
X109120000Y-57365000D03*
D26*
X107970000Y-57364999D03*
X106970000Y-57365000D03*
X106470000Y-57365000D03*
X105470000Y-57364999D03*
D25*
X104320000Y-57365000D03*
X103520000Y-57365000D03*
X103520000Y-57365000D03*
X104320000Y-57365000D03*
D26*
X104970000Y-57365000D03*
X105970000Y-57365000D03*
X107470000Y-57365000D03*
X108470000Y-57365000D03*
D25*
X109120000Y-57365000D03*
X109920000Y-57365000D03*
D27*
X111040000Y-56790000D03*
D28*
X111040000Y-52610000D03*
D27*
X102400000Y-56790000D03*
D28*
X102400000Y-52610000D03*
%TD*%
D29*
%TO.C,C11*%
X70515000Y-64010000D03*
X76115000Y-64010000D03*
%TD*%
D24*
%TO.C,C27*%
X100779999Y-102610000D03*
X102505001Y-102610000D03*
%TD*%
D11*
%TO.C,C14*%
X105381200Y-85600001D03*
X105381200Y-83874999D03*
%TD*%
D14*
%TO.C,R4*%
X64000000Y-79460000D03*
X57900000Y-79460000D03*
%TD*%
D30*
%TO.C,R18*%
X147940000Y-97495000D03*
X147940000Y-95670000D03*
%TD*%
D22*
%TO.C,U6*%
X65860000Y-71825000D03*
D23*
X63955001Y-74700000D03*
X65225000Y-74700000D03*
X66495000Y-74700000D03*
X67764999Y-74700000D03*
X67764999Y-68950000D03*
X66495000Y-68950000D03*
X65225000Y-68950000D03*
X63955001Y-68950000D03*
%TD*%
D11*
%TO.C,C26*%
X85560000Y-97532501D03*
X85560000Y-95807499D03*
%TD*%
D18*
%TO.C,C40*%
X88692500Y-136780000D03*
X91817500Y-136780000D03*
%TD*%
D31*
%TO.C,R13*%
X107430000Y-59600000D03*
X107430000Y-61425000D03*
%TD*%
D19*
%TO.C,R21*%
X88207499Y-61808750D03*
X86382499Y-61808750D03*
%TD*%
D12*
%TO.C,C1*%
X125050000Y-110990000D03*
X119650000Y-110990000D03*
%TD*%
D16*
%TO.C,C18*%
X98402501Y-106570000D03*
X96677499Y-106570000D03*
%TD*%
D32*
%TO.C,SW1*%
X128087500Y-52802500D03*
X135967500Y-52802500D03*
%TD*%
D33*
%TO.C,C4*%
X112527500Y-117545000D03*
X112527500Y-120670000D03*
%TD*%
D34*
%TO.C,R15*%
X142180000Y-93970000D03*
X144005000Y-93970000D03*
%TD*%
D35*
%TO.C,RN1*%
X108640000Y-74836600D03*
X108640000Y-75636600D03*
X108640000Y-76436600D03*
X108640000Y-77236600D03*
X110340000Y-77236600D03*
X110340000Y-76436600D03*
X110340000Y-75636600D03*
X110340000Y-74836600D03*
%TD*%
D36*
%TO.C,U12*%
X146050000Y-99480000D03*
X146050000Y-98210000D03*
X146050000Y-96940000D03*
X146050000Y-95670000D03*
X140650000Y-95670000D03*
X140650000Y-96940000D03*
X140650000Y-98210000D03*
X140650000Y-99480000D03*
D37*
X143350000Y-97575000D03*
%TD*%
D31*
%TO.C,R23*%
X146390000Y-126570000D03*
X146390000Y-128395000D03*
%TD*%
D38*
%TO.C,C6*%
X136050000Y-99035000D03*
X136050000Y-96155000D03*
%TD*%
D11*
%TO.C,C24*%
X87922500Y-81832501D03*
X87922500Y-80107499D03*
%TD*%
D10*
%TO.C,MCU1*%
X83621201Y-116572000D03*
X85371199Y-116572000D03*
%TD*%
D30*
%TO.C,R8*%
X91740000Y-104710000D03*
X91740000Y-102885000D03*
%TD*%
D31*
%TO.C,R14*%
X105910000Y-59600000D03*
X105910000Y-61425000D03*
%TD*%
D16*
%TO.C,C19*%
X91315001Y-80050000D03*
X89589999Y-80050000D03*
%TD*%
D39*
%TO.C,R20*%
X136015000Y-74220000D03*
X142115000Y-74220000D03*
%TD*%
D10*
%TO.C,5V1*%
X83598701Y-119832000D03*
X85348699Y-119832000D03*
%TD*%
D39*
%TO.C,R2*%
X136015000Y-89490000D03*
X142115000Y-89490000D03*
%TD*%
D34*
%TO.C,R5*%
X94717500Y-103750000D03*
X96542500Y-103750000D03*
%TD*%
D29*
%TO.C,C13*%
X70515000Y-79300000D03*
X76115000Y-79300000D03*
%TD*%
D40*
%TO.C,U13*%
X85400000Y-68833750D03*
X86670000Y-68833750D03*
X87940000Y-68833750D03*
X89210000Y-68833750D03*
X89210000Y-63883750D03*
X87940000Y-63883750D03*
X86670000Y-63883750D03*
X85400000Y-63883750D03*
%TD*%
D10*
%TO.C,DC_Fault1*%
X112307501Y-73591600D03*
X114057499Y-73591600D03*
%TD*%
D41*
%TO.C,C22*%
X105410000Y-94697499D03*
X105410000Y-96422501D03*
%TD*%
D13*
%TO.C,C31*%
X82755000Y-130980000D03*
X82755000Y-136580000D03*
%TD*%
D33*
%TO.C,C34*%
X138350000Y-96012500D03*
X138350000Y-99137500D03*
%TD*%
D31*
%TO.C,R11*%
X105410000Y-90680000D03*
X105410000Y-92505000D03*
%TD*%
D18*
%TO.C,C39*%
X131532500Y-136775000D03*
X134657500Y-136775000D03*
%TD*%
D42*
%TO.C,C12*%
X73640000Y-84240000D03*
X70515000Y-84240000D03*
%TD*%
D16*
%TO.C,C20*%
X93882501Y-100250000D03*
X92157499Y-100250000D03*
%TD*%
D24*
%TO.C,C15*%
X131132499Y-55882500D03*
X132857501Y-55882500D03*
%TD*%
D43*
%TO.C,VCC1*%
X148090000Y-128352499D03*
X148090000Y-126602501D03*
%TD*%
D19*
%TO.C,R12*%
X104380000Y-59600000D03*
X102555000Y-59600000D03*
%TD*%
D12*
%TO.C,C9*%
X129500000Y-89650000D03*
X123900000Y-89650000D03*
%TD*%
D11*
%TO.C,C25*%
X105720001Y-99795002D03*
X105720001Y-98070000D03*
%TD*%
D10*
%TO.C,DC_Fault4*%
X112307501Y-78471600D03*
X114057499Y-78471600D03*
%TD*%
D19*
%TO.C,R17*%
X89005100Y-119832000D03*
X87180100Y-119832000D03*
%TD*%
D30*
%TO.C,R7*%
X115510000Y-59262500D03*
X115510000Y-57437500D03*
%TD*%
D44*
%TO.C,RN2*%
X98304200Y-79599200D03*
X99104200Y-79599200D03*
X99904200Y-79599200D03*
X100704200Y-79599200D03*
X100704200Y-77899200D03*
X99904200Y-77899200D03*
X99104200Y-77899200D03*
X98304200Y-77899200D03*
%TD*%
D24*
%TO.C,C23*%
X103598699Y-82277500D03*
X105323701Y-82277500D03*
%TD*%
D19*
%TO.C,R6*%
X67535000Y-136010000D03*
X65710000Y-136010000D03*
%TD*%
D24*
%TO.C,C29*%
X100779999Y-101050000D03*
X102505001Y-101050000D03*
%TD*%
D35*
%TO.C,RN3*%
X88942600Y-117345300D03*
X88942600Y-116545300D03*
X88942600Y-115745300D03*
X88942600Y-114945300D03*
X87242600Y-114945300D03*
X87242600Y-115745300D03*
X87242600Y-116545300D03*
X87242600Y-117345300D03*
%TD*%
D18*
%TO.C,C5*%
X126375000Y-84710000D03*
X129500000Y-84710000D03*
%TD*%
D22*
%TO.C,U3*%
X134155000Y-81835000D03*
D23*
X136059999Y-78960000D03*
X134790000Y-78960000D03*
X133520000Y-78960000D03*
X132250001Y-78960000D03*
X132250001Y-84710000D03*
X133520000Y-84710000D03*
X134790000Y-84710000D03*
X136059999Y-84710000D03*
%TD*%
D10*
%TO.C,3V3*%
X83621201Y-118198700D03*
X85371199Y-118198700D03*
%TD*%
D11*
%TO.C,C16*%
X117040000Y-59212501D03*
X117040000Y-57487499D03*
%TD*%
%TO.C,C28*%
X104160000Y-99795002D03*
X104160000Y-98070000D03*
%TD*%
D41*
%TO.C,C38*%
X90915000Y-67008750D03*
X90915000Y-68733752D03*
%TD*%
D45*
%TO.C,STEP_EN1*%
X85326199Y-114945300D03*
X83576201Y-114945300D03*
%TD*%
D24*
%TO.C,C21*%
X97367499Y-101050000D03*
X99092501Y-101050000D03*
%TD*%
D38*
%TO.C,C2*%
X114837500Y-120670000D03*
X114837500Y-117790000D03*
%TD*%
D22*
%TO.C,U1*%
X134155000Y-66565000D03*
D23*
X136059999Y-63690000D03*
X134790000Y-63690000D03*
X133520000Y-63690000D03*
X132250001Y-63690000D03*
X132250001Y-69440000D03*
X133520000Y-69440000D03*
X134790000Y-69440000D03*
X136059999Y-69440000D03*
%TD*%
D46*
%TO.C,U2*%
X123570000Y-122970000D03*
X123569999Y-120670000D03*
D47*
X117270001Y-120670000D03*
D46*
X123570000Y-118370000D03*
%TD*%
D18*
%TO.C,C7*%
X126375000Y-69440000D03*
X129500000Y-69440000D03*
%TD*%
%TO.C,C43*%
X120787500Y-115780000D03*
X123912500Y-115780000D03*
%TD*%
D10*
%TO.C,DC_Fault3*%
X112307501Y-76845000D03*
X114057499Y-76845000D03*
%TD*%
D34*
%TO.C,R1*%
X138825000Y-93970000D03*
X140650000Y-93970000D03*
%TD*%
D42*
%TO.C,C10*%
X73640000Y-68950000D03*
X70515000Y-68950000D03*
%TD*%
M02*
