M48
; DRILL file {KiCad 9.0.9} date 2026-09-20T16:08:44+0700
; FORMAT={-:-/ absolute / metric / decimal}
; #@! TF.CreationDate,2026-09-20T16:08:44+07:00
; #@! TF.GenerationSoftware,Kicad,Pcbnew,9.0.9
; #@! TF.FileFunction,Plated,1,2,PTH
FMAT,2
METRIC
; #@! TA.AperFunction,Plated,PTH,ViaDrill
T1C0.300
; #@! TA.AperFunction,Plated,PTH,ComponentDrill
T2C0.300
; #@! TA.AperFunction,Plated,PTH,ComponentDrill
T3C0.330
; #@! TA.AperFunction,Plated,PTH,ViaDrill
T4C0.400
; #@! TA.AperFunction,Plated,PTH,ViaDrill
T5C0.500
; #@! TA.AperFunction,Plated,PTH,ComponentDrill
T6C0.600
; #@! TA.AperFunction,Plated,PTH,ComponentDrill
T7C0.650
; #@! TA.AperFunction,Plated,PTH,ComponentDrill
T8C0.800
; #@! TA.AperFunction,Plated,PTH,ComponentDrill
T9C0.850
; #@! TA.AperFunction,Plated,PTH,ComponentDrill
T10C0.950
; #@! TA.AperFunction,Plated,PTH,ComponentDrill
T11C1.000
; #@! TA.AperFunction,Plated,PTH,ComponentDrill
T12C1.300
; #@! TA.AperFunction,Plated,PTH,ViaDrill
T13C4.000
%
G90
G05
T1
X53.16Y-129.87
X53.83Y-93.32
X54.08Y-123.53
X54.19Y-135.83
X54.35Y-60.69
X57.9Y-63.02
X57.9Y-64.17
X57.9Y-65.32
X57.9Y-78.31
X57.9Y-79.46
X57.9Y-80.61
X58.36Y-139.54
X58.72Y-126.67
X59.73Y-135.06
X60.52Y-57.84
X60.95Y-64.17
X60.95Y-79.46
X61.83Y-53.35
X62.5Y-147.39
X63.03Y-123.1
X63.17Y-93.07
X63.53Y-138.93
X63.55Y-112.35
X64.0Y-63.02
X64.0Y-64.17
X64.0Y-65.32
X64.0Y-78.31
X64.0Y-79.46
X64.0Y-80.61
X65.11Y-134.23
X65.225Y-68.3
X65.225Y-68.95
X65.225Y-69.6
X65.225Y-83.59
X65.225Y-84.24
X65.225Y-84.89
X67.45Y-62.11
X67.535Y-136.01
X67.68Y-130.88
X68.3Y-76.01
X68.3Y-76.81
X68.3Y-77.61
X68.696Y-93.87
X68.696Y-94.67
X68.696Y-95.47
X68.696Y-96.27
X68.696Y-97.07
X68.696Y-97.87
X68.696Y-98.67
X68.696Y-99.47
X68.696Y-100.27
X68.696Y-101.07
X68.696Y-101.87
X68.696Y-102.67
X68.696Y-103.47
X68.696Y-104.27
X68.696Y-105.07
X68.696Y-105.87
X68.696Y-106.67
X68.696Y-107.47
X68.696Y-108.27
X68.702Y-109.112
X71.24Y-57.04
X71.525Y-134.23
X71.87Y-76.01
X71.87Y-76.81
X71.87Y-77.61
X71.87Y-93.87
X71.87Y-94.67
X71.87Y-95.47
X71.87Y-96.27
X71.87Y-97.07
X71.87Y-97.87
X71.87Y-98.67
X71.87Y-99.47
X71.87Y-100.27
X71.87Y-101.07
X71.87Y-101.87
X71.87Y-102.67
X71.87Y-103.47
X71.87Y-104.27
X71.87Y-105.07
X71.87Y-105.87
X71.87Y-106.67
X71.87Y-107.47
X71.87Y-108.27
X71.87Y-109.07
X72.42Y-87.74
X73.14Y-62.12
X73.64Y-70.2
X73.64Y-85.49
X73.72Y-136.28
X74.05Y-146.12
X74.865Y-61.52
X74.865Y-62.77
X74.865Y-65.27
X74.865Y-66.52
X74.865Y-76.81
X74.865Y-78.06
X74.865Y-80.56
X74.865Y-81.81
X74.89Y-68.95
X74.89Y-70.2
X74.89Y-84.24
X74.89Y-85.49
X75.17Y-116.2
X75.22Y-123.33
X76.115Y-61.52
X76.115Y-62.77
X76.115Y-65.27
X76.115Y-66.52
X76.115Y-76.81
X76.115Y-78.06
X76.115Y-80.56
X76.115Y-81.81
X77.03Y-133.24
X77.365Y-61.52
X77.365Y-62.77
X77.365Y-65.27
X77.365Y-66.52
X77.365Y-76.81
X77.365Y-78.06
X77.365Y-80.56
X77.365Y-81.81
X78.333Y-85.873
X78.62Y-70.93
X78.96Y-60.0
X78.976Y-55.184
X80.31Y-85.52
X80.454Y-53.706
X80.55Y-66.61
X81.36Y-101.98
X81.43Y-112.43
X82.32Y-124.94
X82.59Y-118.81
X82.59Y-120.421
X82.613Y-117.161
X82.97Y-95.29
X83.15Y-72.92
X83.15Y-76.21
X84.06Y-72.92
X84.06Y-76.21
X84.415Y-96.215
X84.66Y-80.106
X85.02Y-72.92
X85.02Y-76.21
X85.155Y-62.119
X85.19Y-58.68
X85.46Y-80.122
X85.56Y-97.533
X85.93Y-72.92
X85.93Y-76.21
X86.111Y-84.59
X86.17Y-86.79
X86.22Y-138.12
X86.31Y-65.88
X86.53Y-79.339
X86.565Y-134.23
X86.759Y-103.149
X87.81Y-107.18
X87.922Y-79.12
X88.73Y-112.57
X88.938Y-93.19
X89.0Y-84.59
X89.09Y-86.36
X89.105Y-134.23
X89.591Y-79.06
X89.7Y-104.72
X89.7Y-114.94
X89.894Y-99.165
X89.961Y-74.92
X90.25Y-91.88
X90.796Y-74.934
X90.88Y-95.51
X90.9Y-114.94
X91.728Y-64.448
X91.74Y-104.71
X91.77Y-122.16
X91.787Y-101.193
X91.8Y-66.409
X92.057Y-68.237
X92.17Y-147.0
X92.2Y-77.2
X92.7Y-74.561
X92.79Y-83.84
X92.79Y-85.41
X92.98Y-134.23
X93.0Y-77.19
X93.133Y-102.05
X93.44Y-73.596
X93.78Y-116.51
X93.99Y-118.05
X94.3Y-73.01
X94.512Y-105.52
X94.675Y-75.685
X94.68Y-115.15
X95.1Y-72.999
X95.77Y-136.46
X95.79Y-95.51
X95.79Y-96.751
X95.81Y-143.19
X95.89Y-99.293
X96.014Y-116.514
X96.537Y-63.757
X97.082Y-105.52
X97.095Y-116.535
X97.558Y-83.982
X97.57Y-88.19
X97.89Y-78.9
X98.38Y-132.92
X99.269Y-88.189
X99.36Y-101.99
X99.4Y-122.48
X99.684Y-84.31
X99.85Y-66.27
X101.325Y-78.74
X101.33Y-73.66
X101.332Y-69.75
X101.686Y-84.922
X102.15Y-98.17
X102.18Y-69.75
X102.34Y-115.79
X102.56Y-77.5
X102.837Y-103.537
X102.93Y-81.399
X102.977Y-69.82
X103.16Y-97.38
X103.4Y-67.7
X103.41Y-101.86
X103.573Y-80.798
X104.173Y-80.016
X104.239Y-67.71
X104.303Y-101.144
X104.51Y-76.308
X104.524Y-71.971
X104.624Y-70.15
X105.087Y-67.71
X105.124Y-73.659
X105.14Y-64.68
X105.35Y-110.61
X105.496Y-70.15
X105.63Y-123.16
X105.69Y-52.648
X106.27Y-96.43
X106.42Y-89.19
X106.667Y-82.293
X106.717Y-92.057
X106.78Y-105.519
X106.829Y-83.319
X106.83Y-106.58
X106.84Y-97.46
X106.91Y-104.6
X106.91Y-120.67
X107.25Y-52.648
X107.69Y-134.23
X108.16Y-89.19
X108.19Y-103.489
X108.954Y-65.82
X109.51Y-104.43
X109.861Y-65.82
X109.94Y-86.01
X110.23Y-134.23
X110.99Y-104.07
X111.43Y-82.97
X111.725Y-124.993
X112.28Y-92.59
X112.68Y-97.57
X112.69Y-62.85
X113.844Y-124.993
X113.95Y-143.06
X114.06Y-64.61
X114.06Y-70.15
X114.19Y-62.84
X114.22Y-134.23
X114.352Y-57.169
X115.21Y-64.61
X115.21Y-70.15
X115.69Y-109.64
X116.28Y-146.89
X116.32Y-55.44
X117.04Y-59.213
X117.88Y-136.25
X118.76Y-82.44
X118.92Y-90.16
X119.86Y-134.23
X120.22Y-94.85
X120.49Y-134.23
X120.91Y-68.61
X121.12Y-134.23
X122.54Y-80.76
X122.65Y-71.88
X122.65Y-73.13
X122.65Y-75.63
X122.65Y-76.88
X122.65Y-87.14
X122.65Y-88.39
X122.65Y-90.89
X122.65Y-92.14
X123.09Y-61.64
X123.9Y-71.88
X123.9Y-73.13
X123.9Y-75.63
X123.9Y-76.88
X123.9Y-87.14
X123.9Y-88.39
X123.9Y-90.89
X123.9Y-92.14
X124.34Y-103.63
X124.46Y-98.09
X125.125Y-68.19
X125.125Y-69.44
X125.125Y-83.46
X125.125Y-84.71
X125.15Y-71.88
X125.15Y-73.13
X125.15Y-75.63
X125.15Y-76.88
X125.15Y-87.14
X125.15Y-88.39
X125.15Y-90.89
X125.15Y-92.14
X126.375Y-68.19
X126.375Y-83.46
X126.85Y-56.91
X127.56Y-76.58
X127.56Y-77.38
X127.56Y-78.18
X128.07Y-101.5
X128.96Y-108.36
X129.405Y-134.23
X130.14Y-112.66
X130.162Y-66.75
X131.15Y-76.58
X131.15Y-77.38
X131.15Y-78.18
X131.945Y-134.23
X132.87Y-111.03
X133.53Y-101.5
X133.987Y-56.179
X134.25Y-120.31
X134.79Y-68.79
X134.79Y-69.44
X134.79Y-70.09
X134.79Y-84.06
X134.79Y-84.71
X134.79Y-85.36
X135.671Y-53.932
X136.015Y-73.07
X136.015Y-74.22
X136.015Y-75.37
X136.015Y-88.34
X136.015Y-89.49
X136.015Y-90.64
X136.08Y-134.69
X136.81Y-107.02
X136.81Y-142.18
X136.94Y-59.62
X137.32Y-124.73
X137.79Y-55.91
X139.065Y-74.22
X139.065Y-89.49
X142.115Y-73.07
X142.115Y-74.22
X142.115Y-75.37
X142.115Y-88.34
X142.115Y-89.49
X142.115Y-90.64
X143.03Y-131.797
X143.47Y-109.54
X146.12Y-124.0
X146.49Y-135.61
X148.09Y-129.399
T2
X142.75Y-95.775
X142.75Y-96.875
X142.75Y-98.175
X142.75Y-99.375
X143.95Y-95.775
X143.95Y-96.875
X143.95Y-98.175
X143.95Y-99.375
T3
X64.56Y-71.175
X64.56Y-72.475
X64.56Y-86.465
X64.56Y-87.765
X65.86Y-71.175
X65.86Y-72.475
X65.86Y-86.465
X65.86Y-87.765
X67.16Y-71.175
X67.16Y-72.475
X67.16Y-86.465
X67.16Y-87.765
X132.855Y-65.915
X132.855Y-67.215
X132.855Y-81.185
X132.855Y-82.485
X134.155Y-65.915
X134.155Y-67.215
X134.155Y-81.185
X134.155Y-82.485
X135.455Y-65.915
X135.455Y-67.215
X135.455Y-81.185
X135.455Y-82.485
T4
X82.36Y-135.23
X82.36Y-136.58
X82.36Y-137.93
X83.16Y-135.23
X83.16Y-136.58
X83.16Y-137.93
X88.43Y-137.28
X88.95Y-136.28
X103.48Y-135.23
X103.48Y-136.58
X103.48Y-137.93
X104.28Y-135.23
X104.28Y-136.58
X104.28Y-137.93
X109.56Y-137.28
X110.08Y-136.28
X112.03Y-117.8
X112.03Y-120.67
X113.02Y-117.29
X113.03Y-120.67
X114.55Y-118.18
X114.55Y-121.06
X115.13Y-117.4
X115.14Y-120.28
X117.27Y-119.6
X117.27Y-120.67
X117.27Y-121.78
X118.3Y-110.59
X118.3Y-111.39
X119.32Y-104.04
X119.32Y-105.29
X119.65Y-110.59
X119.65Y-111.39
X120.52Y-116.28
X120.83Y-104.04
X120.83Y-105.29
X121.0Y-110.59
X121.0Y-111.39
X121.05Y-115.28
X122.97Y-123.32
X124.17Y-122.62
X125.2Y-135.23
X125.2Y-136.58
X125.2Y-137.93
X126.0Y-135.23
X126.0Y-136.58
X126.0Y-137.93
X131.27Y-137.28
X131.79Y-136.28
X134.57Y-96.97
X137.35Y-97.1
X143.55Y-92.87
X145.25Y-103.86
X145.25Y-104.66
X146.04Y-92.88
X146.6Y-103.86
X146.6Y-104.66
T5
X52.172Y-55.0
X52.172Y-145.0
X53.0Y-53.0
X53.0Y-57.0
X53.0Y-143.0
X53.0Y-147.0
X55.0Y-52.172
X55.0Y-57.828
X55.0Y-142.172
X55.0Y-147.828
X57.0Y-53.0
X57.0Y-57.0
X57.0Y-143.0
X57.0Y-147.0
X57.828Y-55.0
X57.828Y-145.0
X142.172Y-55.0
X142.172Y-145.0
X143.0Y-53.0
X143.0Y-57.0
X143.0Y-143.0
X143.0Y-147.0
X145.0Y-52.172
X145.0Y-57.828
X145.0Y-142.172
X145.0Y-147.828
X147.0Y-53.0
X147.0Y-57.0
X147.0Y-143.0
X147.0Y-147.0
X147.828Y-55.0
X147.828Y-145.0
T7
X119.9Y-53.275
X119.9Y-55.775
X119.9Y-58.275
T8
X93.52Y-110.44
X98.4Y-110.44
X127.685Y-117.03
X127.685Y-119.57
X127.685Y-122.11
T9
X65.71Y-144.737
X68.21Y-144.737
X70.71Y-144.737
T10
X79.005Y-144.915
X81.505Y-144.915
X84.005Y-144.915
X86.505Y-144.915
X100.13Y-144.915
X102.63Y-144.915
X105.13Y-144.915
X107.63Y-144.915
X121.845Y-144.915
X124.345Y-144.915
X126.845Y-144.915
X129.345Y-144.915
T11
X52.91Y-96.27
X52.91Y-101.381
X52.91Y-106.492
X52.91Y-111.604
X52.91Y-119.255
X52.91Y-116.715
X55.45Y-111.604
X55.45Y-96.27
X55.45Y-101.381
X55.45Y-106.492
X55.45Y-116.715
X55.45Y-119.255
X57.99Y-96.27
X57.99Y-106.492
X57.99Y-111.604
X57.99Y-116.715
X57.99Y-119.255
X60.53Y-96.27
X63.07Y-96.27
X63.57Y-106.492
X64.79Y-52.27
X65.61Y-96.27
X66.11Y-106.492
X67.33Y-52.27
X69.87Y-52.27
X72.41Y-52.27
X73.865Y-127.43
X73.865Y-140.13
X76.405Y-127.43
X76.405Y-140.13
X78.945Y-127.43
X78.945Y-140.13
X81.485Y-127.43
X81.485Y-140.13
X84.025Y-127.43
X84.025Y-140.13
X86.565Y-127.43
X86.565Y-140.13
X89.105Y-127.43
X89.105Y-140.13
X91.645Y-127.43
X91.645Y-140.13
X94.99Y-127.43
X94.99Y-140.13
X97.53Y-127.43
X97.53Y-140.13
X100.07Y-127.43
X100.07Y-140.13
X102.61Y-127.43
X102.61Y-140.13
X105.15Y-127.43
X105.15Y-140.13
X107.69Y-127.43
X107.69Y-140.13
X110.23Y-127.43
X110.23Y-140.13
X112.77Y-127.43
X112.77Y-140.13
X116.705Y-127.425
X116.705Y-140.125
X119.245Y-127.425
X119.245Y-140.125
X121.785Y-127.425
X121.785Y-140.125
X124.325Y-127.425
X124.325Y-140.125
X126.865Y-127.425
X126.865Y-140.125
X129.405Y-127.425
X129.405Y-140.125
X131.945Y-127.425
X131.945Y-140.125
X134.485Y-127.425
X134.485Y-140.125
T12
X56.045Y-69.295
X56.045Y-74.375
X56.045Y-84.535
X56.045Y-89.615
X84.795Y-54.99
X89.795Y-54.99
X143.97Y-64.06
X143.97Y-69.14
X143.97Y-79.32
X143.97Y-84.4
X143.97Y-115.36
X143.97Y-120.44
T13
X55.0Y-55.0
X55.0Y-145.0
X145.0Y-55.0
X145.0Y-145.0
T6
G00X102.4Y-53.01
M15
G01X102.4Y-52.21
M16
G05
G00X102.4Y-57.34
M15
G01X102.4Y-56.24
M16
G05
G00X111.04Y-53.01
M15
G01X111.04Y-52.21
M16
G05
G00X111.04Y-57.34
M15
G01X111.04Y-56.24
M16
G05
M30
