%TF.GenerationSoftware,KiCad,Pcbnew,9.0.9*%
%TF.CreationDate,2026-09-20T16:08:35+07:00*%
%TF.ProjectId,MM_Control,4d4d5f43-6f6e-4747-926f-6c2e6b696361,rev?*%
%TF.SameCoordinates,Original*%
%TF.FileFunction,Soldermask,Bot*%
%TF.FilePolarity,Negative*%
%FSLAX46Y46*%
G04 Gerber Fmt 4.6, Leading zero omitted, Abs format (unit mm)*
G04 Created by KiCad (PCBNEW 9.0.9) date 2026-09-20 16:08:35*
%MOMM*%
%LPD*%
G01*
G04 APERTURE LIST*
G04 Aperture macros list*
%AMRoundRect*
0 Rectangle with rounded corners*
0 $1 Rounding radius*
0 $2 $3 $4 $5 $6 $7 $8 $9 X,Y pos of 4 corners*
0 Add a 4 corners polygon primitive as box body*
4,1,4,$2,$3,$4,$5,$6,$7,$8,$9,$2,$3,0*
0 Add four circle primitives for the rounded corners*
1,1,$1+$1,$2,$3*
1,1,$1+$1,$4,$5*
1,1,$1+$1,$6,$7*
1,1,$1+$1,$8,$9*
0 Add four rect primitives between the rounded corners*
20,1,$1+$1,$2,$3,$4,$5,0*
20,1,$1+$1,$4,$5,$6,$7,0*
20,1,$1+$1,$6,$7,$8,$9,0*
20,1,$1+$1,$8,$9,$2,$3,0*%
%AMFreePoly0*
4,1,23,0.550000,-0.750000,0.000000,-0.750000,0.000000,-0.745722,-0.065263,-0.745722,-0.191342,-0.711940,-0.304381,-0.646677,-0.396677,-0.554381,-0.461940,-0.441342,-0.495722,-0.315263,-0.495722,-0.250000,-0.500000,-0.250000,-0.500000,0.250000,-0.495722,0.250000,-0.495722,0.315263,-0.461940,0.441342,-0.396677,0.554381,-0.304381,0.646677,-0.191342,0.711940,-0.065263,0.745722,0.000000,0.745722,
0.000000,0.750000,0.550000,0.750000,0.550000,-0.750000,0.550000,-0.750000,$1*%
%AMFreePoly1*
4,1,23,0.000000,0.745722,0.065263,0.745722,0.191342,0.711940,0.304381,0.646677,0.396677,0.554381,0.461940,0.441342,0.495722,0.315263,0.495722,0.250000,0.500000,0.250000,0.500000,-0.250000,0.495722,-0.250000,0.495722,-0.315263,0.461940,-0.441342,0.396677,-0.554381,0.304381,-0.646677,0.191342,-0.711940,0.065263,-0.745722,0.000000,-0.745722,0.000000,-0.750000,-0.550000,-0.750000,
-0.550000,0.750000,0.000000,0.750000,0.000000,0.745722,0.000000,0.745722,$1*%
G04 Aperture macros list end*
%ADD10C,4.050000*%
%ADD11C,0.000000*%
%ADD12RoundRect,0.250000X1.050000X-1.050000X1.050000X1.050000X-1.050000X1.050000X-1.050000X-1.050000X0*%
%ADD13C,2.600000*%
%ADD14R,1.700000X1.700000*%
%ADD15C,1.700000*%
%ADD16RoundRect,0.250000X-0.600000X-0.725000X0.600000X-0.725000X0.600000X0.725000X-0.600000X0.725000X0*%
%ADD17O,1.700000X1.950000*%
%ADD18RoundRect,0.250000X-1.050000X1.050000X-1.050000X-1.050000X1.050000X-1.050000X1.050000X1.050000X0*%
%ADD19C,0.770000*%
%ADD20RoundRect,0.250000X0.600000X0.675000X-0.600000X0.675000X-0.600000X-0.675000X0.600000X-0.675000X0*%
%ADD21O,1.700000X1.850000*%
%ADD22C,1.500000*%
%ADD23C,0.650000*%
%ADD24O,1.000000X2.100000*%
%ADD25O,1.000000X1.800000*%
%ADD26C,1.440000*%
%ADD27C,1.200000*%
%ADD28RoundRect,0.250001X1.149999X1.149999X-1.149999X1.149999X-1.149999X-1.149999X1.149999X-1.149999X0*%
%ADD29C,2.800000*%
%ADD30RoundRect,0.102000X0.754000X-0.754000X0.754000X0.754000X-0.754000X0.754000X-0.754000X-0.754000X0*%
%ADD31C,1.712000*%
%ADD32RoundRect,0.237500X-0.237500X0.250000X-0.237500X-0.250000X0.237500X-0.250000X0.237500X0.250000X0*%
%ADD33FreePoly0,270.000000*%
%ADD34R,1.500000X1.000000*%
%ADD35FreePoly1,270.000000*%
G04 APERTURE END LIST*
D10*
X57025000Y-55000000D02*
G75*
G02*
X52975000Y-55000000I-2025000J0D01*
G01*
X52975000Y-55000000D02*
G75*
G02*
X57025000Y-55000000I2025000J0D01*
G01*
X57025000Y-145000000D02*
G75*
G02*
X52975000Y-145000000I-2025000J0D01*
G01*
X52975000Y-145000000D02*
G75*
G02*
X57025000Y-145000000I2025000J0D01*
G01*
X147025000Y-55000000D02*
G75*
G02*
X142975000Y-55000000I-2025000J0D01*
G01*
X142975000Y-55000000D02*
G75*
G02*
X147025000Y-55000000I2025000J0D01*
G01*
X147025000Y-145000000D02*
G75*
G02*
X142975000Y-145000000I-2025000J0D01*
G01*
X142975000Y-145000000D02*
G75*
G02*
X147025000Y-145000000I2025000J0D01*
G01*
D11*
%TO.C,MS1.2*%
G36*
X89855000Y-133680000D02*
G01*
X88355000Y-133680000D01*
X88355000Y-132180000D01*
X89855000Y-132180000D01*
X89855000Y-133680000D01*
G37*
%TO.C,MS2.2*%
G36*
X87315000Y-133680000D02*
G01*
X85815000Y-133680000D01*
X85815000Y-132180000D01*
X87315000Y-132180000D01*
X87315000Y-133680000D01*
G37*
%TO.C,MS2.1*%
G36*
X130155000Y-133680000D02*
G01*
X128655000Y-133680000D01*
X128655000Y-132180000D01*
X130155000Y-132180000D01*
X130155000Y-133680000D01*
G37*
%TO.C,MS2.3*%
G36*
X108440000Y-133680000D02*
G01*
X106940000Y-133680000D01*
X106940000Y-132180000D01*
X108440000Y-132180000D01*
X108440000Y-133680000D01*
G37*
%TO.C,MS1.3*%
G36*
X110980000Y-133680000D02*
G01*
X109480000Y-133680000D01*
X109480000Y-132180000D01*
X110980000Y-132180000D01*
X110980000Y-133680000D01*
G37*
%TO.C,MS1.1*%
G36*
X132695000Y-133680000D02*
G01*
X131195000Y-133680000D01*
X131195000Y-132180000D01*
X132695000Y-132180000D01*
X132695000Y-133680000D01*
G37*
%TD*%
D12*
%TO.C,J23*%
X143970000Y-84400000D03*
D13*
X143970000Y-79320001D03*
%TD*%
D14*
%TO.C,J11*%
X52910000Y-106492500D03*
D15*
X55450000Y-106492500D03*
X57989999Y-106492500D03*
%TD*%
D16*
%TO.C,J6*%
X100130000Y-144915000D03*
D17*
X102630000Y-144915000D03*
X105130000Y-144915000D03*
X107630000Y-144915000D03*
%TD*%
D12*
%TO.C,J7*%
X143970000Y-69140000D03*
D13*
X143970000Y-64060001D03*
%TD*%
D16*
%TO.C,J5*%
X79005000Y-144915000D03*
D17*
X81505000Y-144915000D03*
X84005000Y-144915000D03*
X86505000Y-144915000D03*
%TD*%
D18*
%TO.C,J25*%
X56045000Y-69295000D03*
D13*
X56045000Y-74374999D03*
%TD*%
D19*
%TO.C,U4*%
X64560000Y-87765000D03*
X67160000Y-87765000D03*
X65860000Y-87764999D03*
X65860000Y-86465001D03*
X64560000Y-86465000D03*
X67160000Y-86465000D03*
%TD*%
D20*
%TO.C,J1*%
X70710000Y-144737500D03*
D21*
X68210000Y-144737500D03*
X65710000Y-144737500D03*
%TD*%
D22*
%TO.C,Y1*%
X93520000Y-110440000D03*
X98400000Y-110440000D03*
%TD*%
D23*
%TO.C,J22*%
X109610000Y-56290000D03*
X103830000Y-56290000D03*
D24*
X111040000Y-56790000D03*
D25*
X111040000Y-52610000D03*
D24*
X102400000Y-56790000D03*
D25*
X102400000Y-52610000D03*
%TD*%
D14*
%TO.C,J12*%
X57989999Y-111603750D03*
D15*
X55449999Y-111603750D03*
X52910000Y-111603750D03*
%TD*%
D19*
%TO.C,U6*%
X64560000Y-72475000D03*
X67160000Y-72475000D03*
X65860000Y-72474999D03*
X65860000Y-71175001D03*
X64560000Y-71175000D03*
X67160000Y-71175000D03*
%TD*%
D26*
%TO.C,RV1*%
X127685000Y-122110000D03*
X127685000Y-119570000D03*
X127685000Y-117030001D03*
%TD*%
D27*
%TO.C,SW3*%
X119900000Y-53275000D03*
X119900000Y-55775000D03*
X119900000Y-58275000D03*
%TD*%
D28*
%TO.C,J17*%
X89794999Y-54990000D03*
D29*
X84794999Y-54990000D03*
%TD*%
D30*
%TO.C,U7*%
X116705000Y-140125000D03*
D31*
X119245000Y-140125000D03*
X121785000Y-140125000D03*
X124325000Y-140125000D03*
X126865000Y-140125000D03*
X129405000Y-140125000D03*
X131945000Y-140125000D03*
X134485000Y-140125000D03*
X116705000Y-127425000D03*
X119245000Y-127425000D03*
X121785000Y-127425000D03*
X124325000Y-127425000D03*
X126865000Y-127425000D03*
X129405000Y-127425000D03*
X131945000Y-127425000D03*
X134485000Y-127425000D03*
%TD*%
D14*
%TO.C,J10*%
X52910000Y-101381250D03*
D15*
X55450000Y-101381250D03*
%TD*%
D14*
%TO.C,J3*%
X64790000Y-52270200D03*
D15*
X67330000Y-52270200D03*
X69869999Y-52270200D03*
X72410000Y-52270200D03*
%TD*%
D18*
%TO.C,J24*%
X56045000Y-84535000D03*
D13*
X56045000Y-89614999D03*
%TD*%
D14*
%TO.C,J18*%
X57990000Y-116715000D03*
D15*
X57990000Y-119255000D03*
X55450000Y-116715000D03*
X55450000Y-119255000D03*
X52910001Y-116715000D03*
X52910000Y-119255000D03*
%TD*%
D14*
%TO.C,J9*%
X63570000Y-106492500D03*
D15*
X66110000Y-106492500D03*
%TD*%
D30*
%TO.C,U8*%
X94990000Y-140130000D03*
D31*
X97530000Y-140130000D03*
X100070000Y-140130000D03*
X102610000Y-140130000D03*
X105150000Y-140130000D03*
X107690000Y-140130000D03*
X110230000Y-140130000D03*
X112770000Y-140130000D03*
X94990000Y-127430000D03*
X97530000Y-127430000D03*
X100070000Y-127430000D03*
X102610000Y-127430000D03*
X105150000Y-127430000D03*
X107690000Y-127430000D03*
X110230000Y-127430000D03*
X112770000Y-127430000D03*
%TD*%
D14*
%TO.C,J2*%
X52910000Y-96270000D03*
D15*
X55450000Y-96270000D03*
X57989999Y-96270000D03*
X60530000Y-96270000D03*
X63070000Y-96270000D03*
X65610000Y-96270000D03*
%TD*%
D16*
%TO.C,J4*%
X121845000Y-144915000D03*
D17*
X124345000Y-144915000D03*
X126845000Y-144915000D03*
X129345000Y-144915000D03*
%TD*%
D19*
%TO.C,U3*%
X135455000Y-81185000D03*
X132855000Y-81185000D03*
X134155000Y-81185001D03*
X134155000Y-82484999D03*
X135455000Y-82485000D03*
X132855000Y-82485000D03*
%TD*%
D12*
%TO.C,J8*%
X143970000Y-120439999D03*
D13*
X143970000Y-115360000D03*
%TD*%
D19*
%TO.C,U1*%
X135455000Y-65915000D03*
X132855000Y-65915000D03*
X134155000Y-65915001D03*
X134155000Y-67214999D03*
X135455000Y-67215000D03*
X132855000Y-67215000D03*
%TD*%
D30*
%TO.C,U9*%
X73865000Y-140130000D03*
D31*
X76405000Y-140130000D03*
X78945000Y-140130000D03*
X81485000Y-140130000D03*
X84025000Y-140130000D03*
X86565000Y-140130000D03*
X89105000Y-140130000D03*
X91645000Y-140130000D03*
X73865000Y-127430000D03*
X76405000Y-127430000D03*
X78945000Y-127430000D03*
X81485000Y-127430000D03*
X84025000Y-127430000D03*
X86565000Y-127430000D03*
X89105000Y-127430000D03*
X91645000Y-127430000D03*
%TD*%
D32*
%TO.C,R10*%
X105690000Y-52647500D03*
X105690000Y-54472500D03*
%TD*%
D33*
%TO.C,MS1.2*%
X89105000Y-131630000D03*
D34*
X89105000Y-132930000D03*
D35*
X89105000Y-134230000D03*
%TD*%
D33*
%TO.C,MS2.2*%
X86565000Y-131630000D03*
D34*
X86565000Y-132930000D03*
D35*
X86565000Y-134230000D03*
%TD*%
D33*
%TO.C,MS2.1*%
X129405000Y-131630000D03*
D34*
X129405000Y-132930000D03*
D35*
X129405000Y-134230000D03*
%TD*%
D33*
%TO.C,MS2.3*%
X107690000Y-131630000D03*
D34*
X107690000Y-132930000D03*
D35*
X107690000Y-134230000D03*
%TD*%
D33*
%TO.C,MS1.3*%
X110230000Y-131630000D03*
D34*
X110230000Y-132930000D03*
D35*
X110230000Y-134230000D03*
%TD*%
D32*
%TO.C,R9*%
X107250000Y-52647500D03*
X107250000Y-54472500D03*
%TD*%
D33*
%TO.C,MS1.1*%
X131945000Y-131630000D03*
D34*
X131945000Y-132930000D03*
D35*
X131945000Y-134230000D03*
%TD*%
M02*
